<svg xmlns="http://www.w3.org/2000/svg" width="88" height="28" viewBox="0 0 88 28" fill="none">
<rect width="88" height="28" fill="#D3E5FA"/>
<path d="M22.4 3H9.6C8.72 3 8 3.92813 8 5.0625V22.9375C8 24.0719 8.72 25 9.6 25H22.4C23.28 25 24 24.0719 24 22.9375V5.0625C24 3.92813 23.28 3 22.4 3ZM21.8667 22.25H10.1333V5.75H21.8667V22.25ZM12.2667 15.375H19.7333V16.75H12.2667V15.375ZM12.2667 18.125H19.7333V19.5H12.2667V18.125ZM13.3333 9.1875C13.3333 8.049 14.0501 7.125 14.9333 7.125C15.8165 7.125 16.5333 8.049 16.5333 9.1875C16.5333 10.326 15.8165 11.25 14.9333 11.25C14.0501 11.25 13.3333 10.326 13.3333 9.1875ZM16 11.25H13.8667C12.9867 11.25 12.2667 11.8687 12.2667 12.625V14H17.6V12.625C17.6 11.8687 16.88 11.25 16 11.25Z" fill="#089BEE"/>
<rect x="31" y="7" width="50" height="14" fill="#D3E5FA"/>
<path d="M29.7585 18V9.27273H33.2017C33.8608 9.27273 34.4233 9.39062 34.8892 9.62642C35.358 9.85937 35.7145 10.1903 35.9588 10.6193C36.206 11.0455 36.3295 11.5469 36.3295 12.1236C36.3295 12.7031 36.2045 13.2017 35.9545 13.6193C35.7045 14.0341 35.3423 14.3523 34.8679 14.5739C34.3963 14.7955 33.8253 14.9062 33.1548 14.9062H30.8494V13.4233H32.8565C33.2088 13.4233 33.5014 13.375 33.7344 13.2784C33.9673 13.1818 34.1406 13.0369 34.2543 12.8438C34.3707 12.6506 34.429 12.4105 34.429 12.1236C34.429 11.8338 34.3707 11.5895 34.2543 11.3906C34.1406 11.1918 33.9659 11.0412 33.7301 10.9389C33.4972 10.8338 33.2031 10.7812 32.848 10.7812H31.6037V18H29.7585ZM34.4716 14.0284L36.6406 18H34.6037L32.4815 14.0284H34.4716ZM37.6335 18V9.27273H43.5142V10.794H39.4787V12.8736H43.2116V14.3949H39.4787V16.4787H43.5312V18H37.6335ZM49.7156 11.7827C49.6815 11.4389 49.5352 11.1719 49.2766 10.9815C49.0181 10.7912 48.6673 10.696 48.2241 10.696C47.9229 10.696 47.6687 10.7386 47.4613 10.8239C47.2539 10.9062 47.0948 11.0213 46.984 11.169C46.8761 11.3168 46.8221 11.4844 46.8221 11.6719C46.8164 11.8281 46.8491 11.9645 46.9201 12.081C46.994 12.1974 47.0948 12.2983 47.2227 12.3835C47.3505 12.4659 47.4982 12.5384 47.6658 12.6009C47.8335 12.6605 48.0124 12.7116 48.2028 12.7543L48.9869 12.9418C49.3675 13.027 49.717 13.1406 50.0352 13.2827C50.3533 13.4247 50.6289 13.5994 50.8619 13.8068C51.0948 14.0142 51.2752 14.2585 51.4031 14.5398C51.5337 14.821 51.6005 15.1435 51.6033 15.5071C51.6005 16.0412 51.4641 16.5043 51.1942 16.8963C50.9272 17.2855 50.5408 17.5881 50.0352 17.804C49.5323 18.017 48.9258 18.1236 48.2156 18.1236C47.511 18.1236 46.8974 18.0156 46.3746 17.7997C45.8548 17.5838 45.4485 17.2642 45.1559 16.8409C44.8661 16.4148 44.7141 15.8878 44.6999 15.2599H46.4854C46.5053 15.5526 46.5891 15.7969 46.7369 15.9929C46.8874 16.1861 47.0877 16.3324 47.3377 16.4318C47.5906 16.5284 47.8761 16.5767 48.1942 16.5767C48.5067 16.5767 48.7781 16.5312 49.0082 16.4403C49.2411 16.3494 49.4215 16.223 49.5494 16.0611C49.6772 15.8991 49.7411 15.7131 49.7411 15.5028C49.7411 15.3068 49.6829 15.142 49.5664 15.0085C49.4528 14.875 49.2852 14.7614 49.0636 14.6676C48.8448 14.5739 48.5763 14.4886 48.2582 14.4119L47.3079 14.1733C46.5721 13.9943 45.9911 13.7145 45.565 13.3338C45.1388 12.9531 44.9272 12.4403 44.93 11.7955C44.9272 11.267 45.0678 10.8054 45.3519 10.4105C45.6388 10.0156 46.0323 9.70739 46.5323 9.4858C47.0323 9.2642 47.6005 9.15341 48.2369 9.15341C48.8846 9.15341 49.4499 9.2642 49.9329 9.4858C50.4187 9.70739 50.7965 10.0156 51.0664 10.4105C51.3363 10.8054 51.4755 11.2628 51.484 11.7827H49.7156ZM58.2351 9.27273H60.0803V14.9403C60.0803 15.5767 59.9283 16.1335 59.6243 16.6108C59.3232 17.0881 58.9013 17.4602 58.3587 17.7273C57.8161 17.9915 57.1839 18.1236 56.4624 18.1236C55.7379 18.1236 55.1044 17.9915 54.5618 17.7273C54.0192 17.4602 53.5973 17.0881 53.2962 16.6108C52.995 16.1335 52.8445 15.5767 52.8445 14.9403V9.27273H54.6896V14.7827C54.6896 15.1151 54.7621 15.4105 54.907 15.669C55.0547 15.9276 55.2621 16.1307 55.5291 16.2784C55.7962 16.4261 56.1072 16.5 56.4624 16.5C56.8203 16.5 57.1314 16.4261 57.3956 16.2784C57.6626 16.1307 57.8686 15.9276 58.0135 15.669C58.1612 15.4105 58.2351 15.1151 58.2351 14.7827V9.27273ZM61.5984 9.27273H63.8739L66.2773 15.1364H66.3796L68.783 9.27273H71.0586V18H69.2688V12.3196H69.1964L66.9379 17.9574H65.7191L63.4606 12.2983H63.3881V18H61.5984V9.27273ZM72.5788 18V9.27273H78.4595V10.794H74.424V12.8736H78.157V14.3949H74.424V16.4787H78.4766V18H72.5788Z" fill="#010000"/>
</svg>
